<svg xmlns="http://www.w3.org/2000/svg" viewBox="0 0 800 500">
  <defs>
    <linearGradient id="bgGrad" x1="0%" y1="0%" x2="100%" y2="100%">
      <stop offset="0%" stop-color="#0a0e17"/>
      <stop offset="100%" stop-color="#0f1419"/>
    </linearGradient>
    <linearGradient id="accentGrad" x1="0%" y1="0%" x2="100%" y2="100%">
      <stop offset="0%" stop-color="#10b981"/>
      <stop offset="100%" stop-color="#34d399"/>
    </linearGradient>
    <linearGradient id="meterGrad" x1="0%" y1="0%" x2="100%" y2="0%">
      <stop offset="0%" stop-color="#ff5252"/>
      <stop offset="50%" stop-color="#ffc107"/>
      <stop offset="100%" stop-color="#00e676"/>
    </linearGradient>
  </defs>
  
  <!-- Background -->
  <rect width="800" height="500" rx="16" fill="url(#bgGrad)"/>
  <rect x="1" y="1" width="798" height="498" rx="15" fill="none" stroke="#2a3545" stroke-width="1"/>
  
  <!-- Header -->
  <text x="40" y="50" font-family="system-ui, sans-serif" font-size="24" font-weight="600" fill="#e8edf5">Dashboard</text>
  <text x="40" y="72" font-family="system-ui, sans-serif" font-size="12" fill="#5a6577">Real-time trading signals and market analysis</text>
  
  <!-- Market Sentiment Card -->
  <rect x="40" y="100" width="230" height="140" rx="12" fill="#1a2332" stroke="#2a3545" stroke-width="1"/>
  <text x="56" y="128" font-family="system-ui, sans-serif" font-size="11" fill="#8b95a5" letter-spacing="0.5">MARKET SENTIMENT</text>
  <rect x="170" y="112" width="80" height="24" rx="6" fill="#00e6761a" stroke="#00e676" stroke-width="1"/>
  <text x="210" y="129" font-family="system-ui, sans-serif" font-size="10" font-weight="600" fill="#00e676" text-anchor="middle">RISK-ON</text>
  
  <!-- Meter -->
  <rect x="56" y="150" width="198" height="8" rx="4" fill="#151c26"/>
  <rect x="56" y="150" width="135" height="8" rx="4" fill="url(#meterGrad)"/>
  <text x="56" y="178" font-family="system-ui, sans-serif" font-size="10" fill="#5a6577">Risk-Off</text>
  <text x="254" y="178" font-family="system-ui, sans-serif" font-size="10" fill="#5a6577" text-anchor="end">Risk-On</text>
  <text x="56" y="220" font-family="system-ui, sans-serif" font-size="11" fill="#8b95a5">Strong appetite for growth currencies.</text>
  
  <!-- Performance Card -->
  <rect x="285" y="100" width="230" height="140" rx="12" fill="#1a2332" stroke="#2a3545" stroke-width="1"/>
  <text x="301" y="128" font-family="system-ui, sans-serif" font-size="11" fill="#8b95a5" letter-spacing="0.5">TODAYS PERFORMANCE</text>
  
  <!-- Stats - repositioned for better spacing -->
  <text x="310" y="180" font-family="monospace" font-size="26" font-weight="600" fill="#00e676">+127</text>
  <text x="310" y="200" font-family="system-ui, sans-serif" font-size="10" fill="#5a6577">PIPS</text>
  <text x="385" y="180" font-family="monospace" font-size="26" font-weight="600" fill="#e8edf5">5/6</text>
  <text x="385" y="200" font-family="system-ui, sans-serif" font-size="10" fill="#5a6577">WIN RATE</text>
  <text x="450" y="180" font-family="monospace" font-size="26" font-weight="600" fill="#e8edf5">2.4:1</text>
  <text x="450" y="200" font-family="system-ui, sans-serif" font-size="10" fill="#5a6577">AVG R:R</text>
  
  <!-- Active Signals Card -->
  <rect x="530" y="100" width="230" height="140" rx="12" fill="#1a2332" stroke="#2a3545" stroke-width="1"/>
  <text x="546" y="128" font-family="system-ui, sans-serif" font-size="11" fill="#8b95a5" letter-spacing="0.5">ACTIVE SIGNALS</text>
  <text x="580" y="195" font-family="monospace" font-size="52" font-weight="700" fill="#00d4aa">3</text>
  <text x="640" y="172" font-family="system-ui, sans-serif" font-size="14" fill="#00e676">2 Long</text>
  <text x="640" y="195" font-family="system-ui, sans-serif" font-size="14" fill="#ff5252">1 Short</text>
  
  <!-- Live Signals Panel -->
  <rect x="40" y="260" width="470" height="220" rx="12" fill="#1a2332" stroke="#2a3545" stroke-width="1"/>
  <text x="56" y="290" font-family="system-ui, sans-serif" font-size="16" font-weight="600" fill="#e8edf5">Live Signals</text>
  
  <!-- Filter Tabs -->
  <rect x="330" y="272" width="45" height="28" rx="6" fill="#00d4aa"/>
  <text x="352" y="291" font-family="system-ui, sans-serif" font-size="11" fill="#0a0e17" text-anchor="middle">All</text>
  <rect x="382" y="272" width="60" height="28" rx="6" fill="#151c26" stroke="#2a3545"/>
  <text x="412" y="291" font-family="system-ui, sans-serif" font-size="11" fill="#8b95a5" text-anchor="middle">Intraday</text>
  <rect x="448" y="272" width="50" height="28" rx="6" fill="#151c26" stroke="#2a3545"/>
  <text x="473" y="291" font-family="system-ui, sans-serif" font-size="11" fill="#8b95a5" text-anchor="middle">Swing</text>
  
  <!-- Signal Row 1 -->
  <rect x="56" y="312" width="438" height="70" rx="8" fill="#151c26"/>
  <text x="72" y="345" font-family="monospace" font-size="14" font-weight="600" fill="#e8edf5">EUR/USD</text>
  <rect x="145" y="330" width="42" height="22" rx="4" fill="#00e6761a"/>
  <text x="166" y="346" font-family="system-ui, sans-serif" font-size="10" font-weight="600" fill="#00e676" text-anchor="middle">BUY</text>
  
  <text x="210" y="335" font-family="system-ui, sans-serif" font-size="9" fill="#5a6577">ENTRY</text>
  <text x="210" y="355" font-family="monospace" font-size="12" fill="#0099ff">1.0892</text>
  <text x="280" y="335" font-family="system-ui, sans-serif" font-size="9" fill="#5a6577">STOP</text>
  <text x="280" y="355" font-family="monospace" font-size="12" fill="#ff5252">1.0835</text>
  <text x="350" y="335" font-family="system-ui, sans-serif" font-size="9" fill="#5a6577">TARGET</text>
  <text x="350" y="355" font-family="monospace" font-size="12" fill="#00e676">1.1015</text>
  <text x="425" y="335" font-family="system-ui, sans-serif" font-size="9" fill="#5a6577">R:R</text>
  <text x="425" y="355" font-family="monospace" font-size="12" fill="#00d4aa">2.2:1</text>
  <rect x="470" y="332" width="16" height="16" rx="3" fill="#00e6761a"/>
  
  <!-- Signal Row 2 -->
  <rect x="56" y="392" width="438" height="70" rx="8" fill="#151c26"/>
  <text x="72" y="425" font-family="monospace" font-size="14" font-weight="600" fill="#e8edf5">GBP/JPY</text>
  <rect x="145" y="410" width="42" height="22" rx="4" fill="#00e6761a"/>
  <text x="166" y="426" font-family="system-ui, sans-serif" font-size="10" font-weight="600" fill="#00e676" text-anchor="middle">BUY</text>
  
  <text x="210" y="415" font-family="system-ui, sans-serif" font-size="9" fill="#5a6577">ENTRY</text>
  <text x="210" y="435" font-family="monospace" font-size="12" fill="#0099ff">189.45</text>
  <text x="280" y="415" font-family="system-ui, sans-serif" font-size="9" fill="#5a6577">STOP</text>
  <text x="280" y="435" font-family="monospace" font-size="12" fill="#ff5252">188.90</text>
  <text x="350" y="415" font-family="system-ui, sans-serif" font-size="9" fill="#5a6577">TARGET</text>
  <text x="350" y="435" font-family="monospace" font-size="12" fill="#00e676">190.55</text>
  <text x="425" y="415" font-family="system-ui, sans-serif" font-size="9" fill="#5a6577">R:R</text>
  <text x="425" y="435" font-family="monospace" font-size="12" fill="#00d4aa">2.0:1</text>
  
  <!-- Key Drivers Panel -->
  <rect x="530" y="260" width="230" height="220" rx="12" fill="#1a2332" stroke="#2a3545" stroke-width="1"/>
  <text x="546" y="290" font-family="system-ui, sans-serif" font-size="16" font-weight="600" fill="#e8edf5">Key Drivers</text>
  <text x="744" y="290" font-family="system-ui, sans-serif" font-size="10" fill="#5a6577" text-anchor="end">Updated 5m ago</text>
  
  <!-- Driver Item 1 -->
  <rect x="546" y="308" width="32" height="32" rx="6" fill="#00e6761a"/>
  <text x="562" y="330" font-family="system-ui, sans-serif" font-size="14" fill="#00e676" text-anchor="middle">$</text>
  <text x="588" y="320" font-family="system-ui, sans-serif" font-size="12" font-weight="600" fill="#e8edf5">Fed Rate Decision</text>
  <text x="588" y="337" font-family="system-ui, sans-serif" font-size="10" fill="#8b95a5">75% chance of rate cut in Q1</text>
  <rect x="710" y="312" width="36" height="18" rx="4" fill="#ff52521a"/>
  <text x="728" y="325" font-family="system-ui, sans-serif" font-size="8" font-weight="600" fill="#ff5252" text-anchor="middle">HIGH</text>
  
  <!-- Driver Item 2 -->
  <rect x="546" y="358" width="32" height="32" rx="6" fill="#00e6761a"/>
  <text x="562" y="380" font-family="system-ui, sans-serif" font-size="14" fill="#00e676" text-anchor="middle">E</text>
  <text x="588" y="370" font-family="system-ui, sans-serif" font-size="12" font-weight="600" fill="#e8edf5">EUR Inflation Data</text>
  <text x="588" y="387" font-family="system-ui, sans-serif" font-size="10" fill="#8b95a5">Core CPI exceeds expectations</text>
  <rect x="710" y="362" width="36" height="18" rx="4" fill="#ffc1071a"/>
  <text x="728" y="375" font-family="system-ui, sans-serif" font-size="8" font-weight="600" fill="#ffc107" text-anchor="middle">MED</text>
  
  <!-- Driver Item 3 -->
  <rect x="546" y="408" width="32" height="32" rx="6" fill="#ff52521a"/>
  <text x="562" y="430" font-family="system-ui, sans-serif" font-size="14" fill="#ff5252" text-anchor="middle">Y</text>
  <text x="588" y="420" font-family="system-ui, sans-serif" font-size="12" font-weight="600" fill="#e8edf5">China PMI Weakness</text>
  <text x="588" y="437" font-family="system-ui, sans-serif" font-size="10" fill="#8b95a5">Manufacturing contraction</text>
  <rect x="710" y="412" width="36" height="18" rx="4" fill="#ff52521a"/>
  <text x="728" y="425" font-family="system-ui, sans-serif" font-size="8" font-weight="600" fill="#ff5252" text-anchor="middle">HIGH</text>
</svg>