<svg xmlns="http://www.w3.org/2000/svg" viewBox="0 0 800 500">
  <defs>
    <linearGradient id="bgGrad" x1="0%" y1="0%" x2="100%" y2="100%">
      <stop offset="0%" stop-color="#0a0e17"/>
      <stop offset="100%" stop-color="#0f1419"/>
    </linearGradient>
    <linearGradient id="barGrad" x1="0%" y1="0%" x2="100%" y2="0%">
      <stop offset="0%" stop-color="#00d4aa"/>
      <stop offset="100%" stop-color="#0099ff"/>
    </linearGradient>
  </defs>
  
  <!-- Background -->
  <rect width="800" height="500" rx="16" fill="url(#bgGrad)"/>
  <rect x="1" y="1" width="798" height="498" rx="15" fill="none" stroke="#2a3545" stroke-width="1"/>
  
  <!-- Header -->
  <text x="40" y="50" font-family="system-ui, sans-serif" font-size="24" font-weight="600" fill="#e8edf5">Macro Analysis</text>
  <text x="40" y="72" font-family="system-ui, sans-serif" font-size="12" fill="#5a6577">Currency fundamentals and central bank policies</text>
  
  <!-- Fundamental Analysis Panel -->
  <rect x="40" y="95" width="355" height="385" rx="12" fill="#1a2332" stroke="#2a3545" stroke-width="1"/>
  <text x="56" y="125" font-family="system-ui, sans-serif" font-size="16" font-weight="600" fill="#e8edf5">Fundamental Analysis</text>
  
  <!-- USD Card -->
  <rect x="56" y="145" width="160" height="105" rx="10" fill="#151c26" stroke="#2a3545"/>
  <text x="72" y="172" font-family="monospace" font-size="14" font-weight="600" fill="#e8edf5">USD</text>
  <rect x="160" y="160" width="45" height="18" rx="4" fill="#ff52521a"/>
  <text x="182" y="173" font-family="system-ui, sans-serif" font-size="9" font-weight="600" fill="#ff5252" text-anchor="middle">BEARISH</text>
  <text x="72" y="195" font-family="system-ui, sans-serif" font-size="10" fill="#5a6577">Interest Rate</text>
  <text x="200" y="195" font-family="monospace" font-size="10" fill="#e8edf5" text-anchor="end">5.25%</text>
  <text x="72" y="212" font-family="system-ui, sans-serif" font-size="10" fill="#5a6577">GDP Growth</text>
  <text x="200" y="212" font-family="monospace" font-size="10" fill="#00e676" text-anchor="end">+2.1%</text>
  <text x="72" y="229" font-family="system-ui, sans-serif" font-size="10" fill="#5a6577">Inflation</text>
  <text x="200" y="229" font-family="monospace" font-size="10" fill="#e8edf5" text-anchor="end">3.2%</text>
  
  <!-- EUR Card -->
  <rect x="226" y="145" width="160" height="105" rx="10" fill="#151c26" stroke="#2a3545"/>
  <text x="242" y="172" font-family="monospace" font-size="14" font-weight="600" fill="#e8edf5">EUR</text>
  <rect x="330" y="160" width="45" height="18" rx="4" fill="#00e6761a"/>
  <text x="352" y="173" font-family="system-ui, sans-serif" font-size="9" font-weight="600" fill="#00e676" text-anchor="middle">BULLISH</text>
  <text x="242" y="195" font-family="system-ui, sans-serif" font-size="10" fill="#5a6577">Interest Rate</text>
  <text x="370" y="195" font-family="monospace" font-size="10" fill="#e8edf5" text-anchor="end">4.50%</text>
  <text x="242" y="212" font-family="system-ui, sans-serif" font-size="10" fill="#5a6577">GDP Growth</text>
  <text x="370" y="212" font-family="monospace" font-size="10" fill="#00e676" text-anchor="end">+0.4%</text>
  <text x="242" y="229" font-family="system-ui, sans-serif" font-size="10" fill="#5a6577">Inflation</text>
  <text x="370" y="229" font-family="monospace" font-size="10" fill="#e8edf5" text-anchor="end">2.9%</text>
  
  <!-- GBP Card -->
  <rect x="56" y="260" width="160" height="105" rx="10" fill="#151c26" stroke="#2a3545"/>
  <text x="72" y="287" font-family="monospace" font-size="14" font-weight="600" fill="#e8edf5">GBP</text>
  <rect x="160" y="275" width="45" height="18" rx="4" fill="#00e6761a"/>
  <text x="182" y="288" font-family="system-ui, sans-serif" font-size="9" font-weight="600" fill="#00e676" text-anchor="middle">BULLISH</text>
  <text x="72" y="310" font-family="system-ui, sans-serif" font-size="10" fill="#5a6577">Interest Rate</text>
  <text x="200" y="310" font-family="monospace" font-size="10" fill="#e8edf5" text-anchor="end">5.25%</text>
  <text x="72" y="327" font-family="system-ui, sans-serif" font-size="10" fill="#5a6577">GDP Growth</text>
  <text x="200" y="327" font-family="monospace" font-size="10" fill="#00e676" text-anchor="end">+0.2%</text>
  <text x="72" y="344" font-family="system-ui, sans-serif" font-size="10" fill="#5a6577">Inflation</text>
  <text x="200" y="344" font-family="monospace" font-size="10" fill="#e8edf5" text-anchor="end">4.0%</text>
  
  <!-- JPY Card -->
  <rect x="226" y="260" width="160" height="105" rx="10" fill="#151c26" stroke="#2a3545"/>
  <text x="242" y="287" font-family="monospace" font-size="14" font-weight="600" fill="#e8edf5">JPY</text>
  <rect x="330" y="275" width="45" height="18" rx="4" fill="#ff52521a"/>
  <text x="352" y="288" font-family="system-ui, sans-serif" font-size="9" font-weight="600" fill="#ff5252" text-anchor="middle">BEARISH</text>
  <text x="242" y="310" font-family="system-ui, sans-serif" font-size="10" fill="#5a6577">Interest Rate</text>
  <text x="370" y="310" font-family="monospace" font-size="10" fill="#e8edf5" text-anchor="end">-0.10%</text>
  <text x="242" y="327" font-family="system-ui, sans-serif" font-size="10" fill="#5a6577">GDP Growth</text>
  <text x="370" y="327" font-family="monospace" font-size="10" fill="#00e676" text-anchor="end">+1.9%</text>
  <text x="242" y="344" font-family="system-ui, sans-serif" font-size="10" fill="#5a6577">Inflation</text>
  <text x="370" y="344" font-family="monospace" font-size="10" fill="#e8edf5" text-anchor="end">2.8%</text>
  
  <!-- AUD Card -->
  <rect x="56" y="375" width="160" height="90" rx="10" fill="#151c26" stroke="#2a3545"/>
  <text x="72" y="402" font-family="monospace" font-size="14" font-weight="600" fill="#e8edf5">AUD</text>
  <rect x="160" y="390" width="45" height="18" rx="4" fill="#ffc1071a"/>
  <text x="182" y="403" font-family="system-ui, sans-serif" font-size="9" font-weight="600" fill="#ffc107" text-anchor="middle">NEUTRAL</text>
  <text x="72" y="425" font-family="system-ui, sans-serif" font-size="10" fill="#5a6577">Interest Rate</text>
  <text x="200" y="425" font-family="monospace" font-size="10" fill="#e8edf5" text-anchor="end">4.35%</text>
  <text x="72" y="442" font-family="system-ui, sans-serif" font-size="10" fill="#5a6577">GDP Growth</text>
  <text x="200" y="442" font-family="monospace" font-size="10" fill="#00e676" text-anchor="end">+1.5%</text>
  
  <!-- CAD Card -->
  <rect x="226" y="375" width="160" height="90" rx="10" fill="#151c26" stroke="#2a3545"/>
  <text x="242" y="402" font-family="monospace" font-size="14" font-weight="600" fill="#e8edf5">CAD</text>
  <rect x="330" y="390" width="45" height="18" rx="4" fill="#ffc1071a"/>
  <text x="352" y="403" font-family="system-ui, sans-serif" font-size="9" font-weight="600" fill="#ffc107" text-anchor="middle">NEUTRAL</text>
  <text x="242" y="425" font-family="system-ui, sans-serif" font-size="10" fill="#5a6577">Interest Rate</text>
  <text x="370" y="425" font-family="monospace" font-size="10" fill="#e8edf5" text-anchor="end">5.00%</text>
  <text x="242" y="442" font-family="system-ui, sans-serif" font-size="10" fill="#5a6577">GDP Growth</text>
  <text x="370" y="442" font-family="monospace" font-size="10" fill="#00e676" text-anchor="end">+1.1%</text>
  
  <!-- Central Bank Rates Panel -->
  <rect x="410" y="95" width="350" height="385" rx="12" fill="#1a2332" stroke="#2a3545" stroke-width="1"/>
  <text x="426" y="125" font-family="system-ui, sans-serif" font-size="16" font-weight="600" fill="#e8edf5">Central Bank Rates</text>
  
  <!-- FED -->
  <text x="426" y="165" font-family="system-ui, sans-serif" font-size="12" font-weight="600" fill="#e8edf5">FED</text>
  <rect x="480" y="152" width="200" height="8" rx="4" fill="#151c26"/>
  <rect x="480" y="152" width="175" height="8" rx="4" fill="url(#barGrad)"/>
  <text x="730" y="165" font-family="monospace" font-size="12" font-weight="600" fill="#e8edf5" text-anchor="end">5.25%</text>
  
  <!-- ECB -->
  <text x="426" y="205" font-family="system-ui, sans-serif" font-size="12" font-weight="600" fill="#e8edf5">ECB</text>
  <rect x="480" y="192" width="200" height="8" rx="4" fill="#151c26"/>
  <rect x="480" y="192" width="150" height="8" rx="4" fill="url(#barGrad)"/>
  <text x="730" y="205" font-family="monospace" font-size="12" font-weight="600" fill="#e8edf5" text-anchor="end">4.50%</text>
  
  <!-- BOE -->
  <text x="426" y="245" font-family="system-ui, sans-serif" font-size="12" font-weight="600" fill="#e8edf5">BOE</text>
  <rect x="480" y="232" width="200" height="8" rx="4" fill="#151c26"/>
  <rect x="480" y="232" width="175" height="8" rx="4" fill="url(#barGrad)"/>
  <text x="730" y="245" font-family="monospace" font-size="12" font-weight="600" fill="#e8edf5" text-anchor="end">5.25%</text>
  
  <!-- BOJ -->
  <text x="426" y="285" font-family="system-ui, sans-serif" font-size="12" font-weight="600" fill="#e8edf5">BOJ</text>
  <rect x="480" y="272" width="200" height="8" rx="4" fill="#151c26"/>
  <rect x="480" y="272" width="10" height="8" rx="4" fill="url(#barGrad)"/>
  <text x="730" y="285" font-family="monospace" font-size="12" font-weight="600" fill="#e8edf5" text-anchor="end">-0.10%</text>
  
  <!-- RBA -->
  <text x="426" y="325" font-family="system-ui, sans-serif" font-size="12" font-weight="600" fill="#e8edf5">RBA</text>
  <rect x="480" y="312" width="200" height="8" rx="4" fill="#151c26"/>
  <rect x="480" y="312" width="145" height="8" rx="4" fill="url(#barGrad)"/>
  <text x="730" y="325" font-family="monospace" font-size="12" font-weight="600" fill="#e8edf5" text-anchor="end">4.35%</text>
  
  <!-- BOC -->
  <text x="426" y="365" font-family="system-ui, sans-serif" font-size="12" font-weight="600" fill="#e8edf5">BOC</text>
  <rect x="480" y="352" width="200" height="8" rx="4" fill="#151c26"/>
  <rect x="480" y="352" width="167" height="8" rx="4" fill="url(#barGrad)"/>
  <text x="730" y="365" font-family="monospace" font-size="12" font-weight="600" fill="#e8edf5" text-anchor="end">5.00%</text>
  
  <!-- SNB -->
  <text x="426" y="405" font-family="system-ui, sans-serif" font-size="12" font-weight="600" fill="#e8edf5">SNB</text>
  <rect x="480" y="392" width="200" height="8" rx="4" fill="#151c26"/>
  <rect x="480" y="392" width="58" height="8" rx="4" fill="url(#barGrad)"/>
  <text x="730" y="405" font-family="monospace" font-size="12" font-weight="600" fill="#e8edf5" text-anchor="end">1.75%</text>
  
  <!-- RBNZ -->
  <text x="426" y="445" font-family="system-ui, sans-serif" font-size="12" font-weight="600" fill="#e8edf5">RBNZ</text>
  <rect x="480" y="432" width="200" height="8" rx="4" fill="#151c26"/>
  <rect x="480" y="432" width="183" height="8" rx="4" fill="url(#barGrad)"/>
  <text x="730" y="445" font-family="monospace" font-size="12" font-weight="600" fill="#e8edf5" text-anchor="end">5.50%</text>
</svg>