<svg xmlns="http://www.w3.org/2000/svg" viewBox="0 0 800 450" fill="none">
  <defs>
    <linearGradient id="bgGrad" x1="0%" y1="0%" x2="100%" y2="100%">
      <stop offset="0%" style="stop-color:#0a0e17"/>
      <stop offset="100%" style="stop-color:#0f1419"/>
    </linearGradient>
  </defs>
  
  <!-- Background -->
  <rect width="800" height="450" rx="16" fill="url(#bgGrad)"/>
  <rect x="1" y="1" width="798" height="448" rx="15" fill="none" stroke="#2a3545" stroke-width="1"/>
  
  <!-- Header -->
  <text x="40" y="50" font-family="system-ui, sans-serif" font-size="24" font-weight="600" fill="#e8edf5">Trading Signals</text>
  <text x="40" y="72" font-family="system-ui, sans-serif" font-size="12" fill="#5a6577">High-probability setups with clear risk management</text>
  
  <!-- Filters -->
  <rect x="530" y="32" width="80" height="32" rx="8" fill="#151c26" stroke="#2a3545"/>
  <text x="570" y="53" font-family="system-ui, sans-serif" font-size="11" fill="#8b95a5" text-anchor="middle">All Pairs</text>
  <rect x="620" y="32" width="80" height="32" rx="8" fill="#151c26" stroke="#2a3545"/>
  <text x="660" y="53" font-family="system-ui, sans-serif" font-size="11" fill="#8b95a5" text-anchor="middle">All Types</text>
  <rect x="710" y="32" width="70" height="32" rx="8" fill="#151c26" stroke="#2a3545"/>
  <text x="745" y="53" font-family="system-ui, sans-serif" font-size="11" fill="#8b95a5" text-anchor="middle">Active</text>
  
  <!-- Table Panel -->
  <rect x="40" y="95" width="720" height="340" rx="12" fill="#1a2332" stroke="#2a3545" stroke-width="1"/>
  
  <!-- Table Header -->
  <rect x="40" y="95" width="720" height="44" rx="12" fill="#151c26"/>
  <rect x="40" y="125" width="720" height="14" fill="#151c26"/>
  <text x="65" y="122" font-family="system-ui, sans-serif" font-size="10" font-weight="600" fill="#5a6577" letter-spacing="0.5">PAIR</text>
  <text x="160" y="122" font-family="system-ui, sans-serif" font-size="10" font-weight="600" fill="#5a6577" letter-spacing="0.5">DIRECTION</text>
  <text x="260" y="122" font-family="system-ui, sans-serif" font-size="10" font-weight="600" fill="#5a6577" letter-spacing="0.5">ENTRY</text>
  <text x="350" y="122" font-family="system-ui, sans-serif" font-size="10" font-weight="600" fill="#5a6577" letter-spacing="0.5">STOP LOSS</text>
  <text x="450" y="122" font-family="system-ui, sans-serif" font-size="10" font-weight="600" fill="#5a6577" letter-spacing="0.5">TAKE PROFIT</text>
  <text x="560" y="122" font-family="system-ui, sans-serif" font-size="10" font-weight="600" fill="#5a6577" letter-spacing="0.5">R:R</text>
  <text x="620" y="122" font-family="system-ui, sans-serif" font-size="10" font-weight="600" fill="#5a6577" letter-spacing="0.5">STATUS</text>
  <text x="705" y="122" font-family="system-ui, sans-serif" font-size="10" font-weight="600" fill="#5a6577" letter-spacing="0.5">TYPE</text>
  
  <!-- Row 1 - EUR/USD -->
  <line x1="56" y1="180" x2="744" y2="180" stroke="#2a3545" stroke-width="1"/>
  <text x="65" y="165" font-family="monospace" font-size="13" font-weight="600" fill="#e8edf5">EUR/USD</text>
  <rect x="160" y="150" width="42" height="22" rx="4" fill="rgba(0,230,118,0.15)"/>
  <text x="181" y="166" font-family="system-ui, sans-serif" font-size="10" font-weight="600" fill="#00e676" text-anchor="middle">BUY</text>
  <text x="260" y="165" font-family="monospace" font-size="12" fill="#e8edf5">1.0892</text>
  <text x="350" y="165" font-family="monospace" font-size="12" fill="#ff5252">1.0835</text>
  <text x="450" y="165" font-family="monospace" font-size="12" fill="#00e676">1.1015</text>
  <text x="560" y="165" font-family="monospace" font-size="12" fill="#00d4aa">2.2:1</text>
  <rect x="618" y="150" width="50" height="22" rx="4" fill="rgba(0,230,118,0.15)"/>
  <text x="643" y="166" font-family="system-ui, sans-serif" font-size="10" fill="#00e676" text-anchor="middle">Active</text>
  <text x="705" y="165" font-family="system-ui, sans-serif" font-size="11" fill="#8b95a5">Swing</text>
  
  <!-- Row 2 - GBP/JPY -->
  <line x1="56" y1="225" x2="744" y2="225" stroke="#2a3545" stroke-width="1"/>
  <text x="65" y="210" font-family="monospace" font-size="13" font-weight="600" fill="#e8edf5">GBP/JPY</text>
  <rect x="160" y="195" width="42" height="22" rx="4" fill="rgba(0,230,118,0.15)"/>
  <text x="181" y="211" font-family="system-ui, sans-serif" font-size="10" font-weight="600" fill="#00e676" text-anchor="middle">BUY</text>
  <text x="260" y="210" font-family="monospace" font-size="12" fill="#e8edf5">189.45</text>
  <text x="350" y="210" font-family="monospace" font-size="12" fill="#ff5252">188.90</text>
  <text x="450" y="210" font-family="monospace" font-size="12" fill="#00e676">190.55</text>
  <text x="560" y="210" font-family="monospace" font-size="12" fill="#00d4aa">2.0:1</text>
  <rect x="618" y="195" width="50" height="22" rx="4" fill="rgba(0,230,118,0.15)"/>
  <text x="643" y="211" font-family="system-ui, sans-serif" font-size="10" fill="#00e676" text-anchor="middle">Active</text>
  <text x="705" y="210" font-family="system-ui, sans-serif" font-size="11" fill="#8b95a5">Intraday</text>
  
  <!-- Row 3 - USD/CAD -->
  <line x1="56" y1="270" x2="744" y2="270" stroke="#2a3545" stroke-width="1"/>
  <text x="65" y="255" font-family="monospace" font-size="13" font-weight="600" fill="#e8edf5">USD/CAD</text>
  <rect x="160" y="240" width="42" height="22" rx="4" fill="rgba(255,82,82,0.15)"/>
  <text x="181" y="256" font-family="system-ui, sans-serif" font-size="10" font-weight="600" fill="#ff5252" text-anchor="middle">SELL</text>
  <text x="260" y="255" font-family="monospace" font-size="12" fill="#e8edf5">1.3585</text>
  <text x="350" y="255" font-family="monospace" font-size="12" fill="#ff5252">1.3650</text>
  <text x="450" y="255" font-family="monospace" font-size="12" fill="#00e676">1.3420</text>
  <text x="560" y="255" font-family="monospace" font-size="12" fill="#00d4aa">2.5:1</text>
  <rect x="618" y="240" width="50" height="22" rx="4" fill="rgba(0,230,118,0.15)"/>
  <text x="643" y="256" font-family="system-ui, sans-serif" font-size="10" fill="#00e676" text-anchor="middle">Active</text>
  <text x="705" y="255" font-family="system-ui, sans-serif" font-size="11" fill="#8b95a5">Swing</text>
  
  <!-- Row 4 - AUD/USD -->
  <line x1="56" y1="315" x2="744" y2="315" stroke="#2a3545" stroke-width="1"/>
  <text x="65" y="300" font-family="monospace" font-size="13" font-weight="600" fill="#e8edf5">AUD/USD</text>
  <rect x="160" y="285" width="42" height="22" rx="4" fill="rgba(0,230,118,0.15)"/>
  <text x="181" y="301" font-family="system-ui, sans-serif" font-size="10" font-weight="600" fill="#00e676" text-anchor="middle">BUY</text>
  <text x="260" y="300" font-family="monospace" font-size="12" fill="#e8edf5">0.6725</text>
  <text x="350" y="300" font-family="monospace" font-size="12" fill="#ff5252">0.6680</text>
  <text x="450" y="300" font-family="monospace" font-size="12" fill="#00e676">0.6850</text>
  <text x="560" y="300" font-family="monospace" font-size="12" fill="#00d4aa">2.8:1</text>
  <rect x="618" y="285" width="50" height="22" rx="4" fill="rgba(255,193,7,0.15)"/>
  <text x="643" y="301" font-family="system-ui, sans-serif" font-size="10" fill="#ffc107" text-anchor="middle">Pending</text>
  <text x="705" y="300" font-family="system-ui, sans-serif" font-size="11" fill="#8b95a5">Swing</text>
  
  <!-- Row 5 - EUR/GBP -->
  <line x1="56" y1="360" x2="744" y2="360" stroke="#2a3545" stroke-width="1"/>
  <text x="65" y="345" font-family="monospace" font-size="13" font-weight="600" fill="#e8edf5">EUR/GBP</text>
  <rect x="160" y="330" width="42" height="22" rx="4" fill="rgba(255,82,82,0.15)"/>
  <text x="181" y="346" font-family="system-ui, sans-serif" font-size="10" font-weight="600" fill="#ff5252" text-anchor="middle">SELL</text>
  <text x="260" y="345" font-family="monospace" font-size="12" fill="#e8edf5">0.8565</text>
  <text x="350" y="345" font-family="monospace" font-size="12" fill="#ff5252">0.8595</text>
  <text x="450" y="345" font-family="monospace" font-size="12" fill="#00e676">0.8490</text>
  <text x="560" y="345" font-family="monospace" font-size="12" fill="#00d4aa">2.5:1</text>
  <rect x="618" y="330" width="50" height="22" rx="4" fill="rgba(90,101,119,0.3)"/>
  <text x="643" y="346" font-family="system-ui, sans-serif" font-size="10" fill="#5a6577" text-anchor="middle">Closed</text>
  <text x="705" y="345" font-family="system-ui, sans-serif" font-size="11" fill="#8b95a5">Intraday</text>
  
  <!-- Row 6 - NZD/USD -->
  <text x="65" y="390" font-family="monospace" font-size="13" font-weight="600" fill="#e8edf5">NZD/USD</text>
  <rect x="160" y="375" width="42" height="22" rx="4" fill="rgba(0,230,118,0.15)"/>
  <text x="181" y="391" font-family="system-ui, sans-serif" font-size="10" font-weight="600" fill="#00e676" text-anchor="middle">BUY</text>
  <text x="260" y="390" font-family="monospace" font-size="12" fill="#e8edf5">0.6180</text>
  <text x="350" y="390" font-family="monospace" font-size="12" fill="#ff5252">0.6120</text>
  <text x="450" y="390" font-family="monospace" font-size="12" fill="#00e676">0.6320</text>
  <text x="560" y="390" font-family="monospace" font-size="12" fill="#00d4aa">2.3:1</text>
  <rect x="618" y="375" width="50" height="22" rx="4" fill="rgba(0,230,118,0.15)"/>
  <text x="643" y="391" font-family="system-ui, sans-serif" font-size="10" fill="#00e676" text-anchor="middle">Active</text>
  <text x="705" y="390" font-family="system-ui, sans-serif" font-size="11" fill="#8b95a5">Swing</text>
</svg>

