<svg xmlns="http://www.w3.org/2000/svg" viewBox="0 0 500 550" fill="none">
  <defs>
    <linearGradient id="bgGrad" x1="0%" y1="0%" x2="100%" y2="100%">
      <stop offset="0%" style="stop-color:#1a2332"/>
      <stop offset="100%" style="stop-color:#151c26"/>
    </linearGradient>
    <linearGradient id="accentGrad" x1="0%" y1="0%" x2="100%" y2="100%">
      <stop offset="0%" style="stop-color:#10b981"/>
      <stop offset="100%" style="stop-color:#34d399"/>
    </linearGradient>
  </defs>
  
  <!-- Background with blur effect simulation -->
  <rect width="500" height="550" rx="16" fill="url(#bgGrad)"/>
  <rect x="1" y="1" width="498" height="548" rx="15" fill="none" stroke="#2a3545" stroke-width="1"/>
  
  <!-- Close Button -->
  <rect x="450" y="16" width="32" height="32" rx="8" fill="#151c26" stroke="#2a3545"/>
  <path d="M462 24 L474 36 M474 24 L462 36" stroke="#8b95a5" stroke-width="2" stroke-linecap="round"/>
  
  <!-- Header -->
  <text x="28" y="45" font-family="monospace" font-size="24" font-weight="600" fill="#e8edf5">EUR/USD</text>
  <rect x="135" y="26" width="45" height="24" rx="5" fill="rgba(0,230,118,0.15)"/>
  <text x="158" y="44" font-family="system-ui, sans-serif" font-size="11" font-weight="600" fill="#00e676" text-anchor="middle">BUY</text>
  <rect x="190" y="26" width="50" height="24" rx="5" fill="rgba(0,230,118,0.15)"/>
  <text x="215" y="44" font-family="system-ui, sans-serif" font-size="11" fill="#00e676" text-anchor="middle">Active</text>
  <text x="472" y="45" font-family="system-ui, sans-serif" font-size="13" fill="#8b95a5" text-anchor="end">Swing Trade</text>
  
  <line x1="28" y1="65" x2="472" y2="65" stroke="#2a3545" stroke-width="1"/>
  
  <!-- Price Levels Section -->
  <text x="28" y="100" font-family="system-ui, sans-serif" font-size="11" fill="#5a6577" letter-spacing="0.5">PRICE LEVELS</text>
  
  <rect x="28" y="115" width="215" height="60" rx="10" fill="#0f1419"/>
  <text x="44" y="138" font-family="system-ui, sans-serif" font-size="10" fill="#5a6577">ENTRY</text>
  <text x="44" y="160" font-family="monospace" font-size="18" fill="#0099ff">1.0892</text>
  
  <rect x="257" y="115" width="215" height="60" rx="10" fill="#0f1419"/>
  <text x="273" y="138" font-family="system-ui, sans-serif" font-size="10" fill="#5a6577">CURRENT</text>
  <text x="273" y="160" font-family="monospace" font-size="18" fill="#e8edf5">1.0930</text>
  
  <rect x="28" y="185" width="215" height="60" rx="10" fill="#0f1419"/>
  <text x="44" y="208" font-family="system-ui, sans-serif" font-size="10" fill="#5a6577">STOP LOSS</text>
  <text x="44" y="230" font-family="monospace" font-size="18" fill="#ff5252">1.0835</text>
  
  <rect x="257" y="185" width="215" height="60" rx="10" fill="#0f1419"/>
  <text x="273" y="208" font-family="system-ui, sans-serif" font-size="10" fill="#5a6577">TAKE PROFIT</text>
  <text x="273" y="230" font-family="monospace" font-size="18" fill="#00e676">1.1015</text>
  
  <!-- Trade Analysis Section -->
  <text x="28" y="280" font-family="system-ui, sans-serif" font-size="11" fill="#5a6577" letter-spacing="0.5">TRADE ANALYSIS</text>
  
  <rect x="28" y="295" width="444" height="75" rx="10" fill="#0f1419"/>
  <text x="44" y="320" font-family="system-ui, sans-serif" font-size="12" fill="#e8edf5">ECB maintaining hawkish stance while Fed signals</text>
  <text x="44" y="338" font-family="system-ui, sans-serif" font-size="12" fill="#e8edf5">potential rate cuts. Strong support at 1.0835 with</text>
  <text x="44" y="356" font-family="system-ui, sans-serif" font-size="12" fill="#e8edf5">clear resistance break. Risk-on sentiment favoring EUR.</text>
  
  <!-- Risk Management Section -->
  <text x="28" y="400" font-family="system-ui, sans-serif" font-size="11" fill="#5a6577" letter-spacing="0.5">RISK MANAGEMENT</text>
  
  <rect x="28" y="415" width="215" height="55" rx="10" fill="#0f1419"/>
  <text x="44" y="438" font-family="system-ui, sans-serif" font-size="10" fill="#5a6577">RISK/REWARD</text>
  <text x="44" y="458" font-family="monospace" font-size="18" fill="#00d4aa">2.2:1</text>
  
  <rect x="257" y="415" width="215" height="55" rx="10" fill="#0f1419"/>
  <text x="273" y="438" font-family="system-ui, sans-serif" font-size="10" fill="#5a6577">P&amp;L (PIPS)</text>
  <text x="273" y="458" font-family="monospace" font-size="18" fill="#00e676">+38</text>
  
  <!-- Action Buttons -->
  <rect x="28" y="490" width="215" height="44" rx="10" fill="url(#accentGrad)"/>
  <text x="135" y="518" font-family="system-ui, sans-serif" font-size="13" font-weight="600" fill="#0a0e17" text-anchor="middle">Copy Trade Details</text>
  
  <rect x="257" y="490" width="215" height="44" rx="10" fill="#0f1419" stroke="#2a3545"/>
  <text x="364" y="518" font-family="system-ui, sans-serif" font-size="13" fill="#8b95a5" text-anchor="middle">Close</text>
</svg>

